<?xml version="1.0" standalone="no"?>
<!DOCTYPE svg PUBLIC "-//W3C//DTD SVG 20010904//EN"
 "http://www.w3.org/TR/2001/REC-SVG-20010904/DTD/svg10.dtd">
<svg version="1.0" xmlns="http://www.w3.org/2000/svg"
 width="384.000000pt" height="372.000000pt" viewBox="0 0 384.000000 372.000000"
 preserveAspectRatio="xMidYMid meet">

<g transform="translate(0.000000,372.000000) scale(0.100000,-0.100000)"
fill="#000000" stroke="none">
<path d="M1185 3516 c-39 -17 -70 -52 -90 -98 -13 -32 -15 -121 -15 -662 l0
-624 266 -257 c291 -281 282 -276 342 -220 15 14 32 25 39 25 6 0 13 4 15 8 2
5 159 113 350 242 l347 233 -20 25 c-32 42 -540 562 -548 562 -4 0 -105 -134
-224 -297 -119 -164 -222 -306 -230 -316 -12 -18 -19 -18 -110 -7 -53 7 -97
16 -97 21 0 18 663 900 670 892 4 -4 99 -114 210 -243 112 -129 213 -244 225
-255 13 -11 71 -75 129 -142 58 -67 115 -127 126 -133 20 -11 54 -1 62 18 2 7
215 155 265 185 32 19 -77 -208 -150 -315 -33 -48 -42 -69 -34 -77 6 -6 8 -11
5 -11 -5 0 -143 155 -262 295 l-26 30 0 -90 0 -90 586 -590 c623 -628 620
-627 130 -60 l-216 250 0 785 c0 742 -1 787 -19 825 -21 46 -54 79 -94 94 -45
17 -1593 14 -1632 -3z"/>
<path d="M270 3400 l0 -50 306 0 305 0 -3 48 -3 47 -302 3 -303 2 0 -50z"/>
<path d="M324 3220 c-44 -17 -64 -58 -64 -127 0 -35 5 -73 10 -83 7 -13 7 -28
-1 -47 -14 -37 -13 -119 2 -155 22 -55 42 -58 339 -58 l271 0 -3 48 -3 47
-270 5 -270 5 0 40 0 40 270 5 270 5 0 45 0 45 -270 5 -270 5 0 40 0 40 270 5
270 5 0 45 0 45 -265 2 c-146 1 -275 -2 -286 -7z"/>
<path d="M662 2511 c183 -214 514 -598 789 -917 81 -93 158 -182 172 -199 l26
-30 1 90 0 90 -586 590 -585 590 183 -214z"/>
<path d="M270 2525 l0 -135 210 0 210 0 0 -67 0 -67 30 29 c46 44 42 92 -11
150 l-42 45 -163 0 -164 0 0 90 0 90 -35 0 -35 0 0 -135z"/>
<path d="M690 2592 l0 -68 63 -62 c39 -39 69 -61 78 -57 31 12 43 50 47 153
l4 102 -36 0 -36 0 0 -80 c0 -68 -3 -81 -19 -90 -37 -20 -41 -13 -41 80 l0 90
-30 0 -30 0 0 -68z"/>
<path d="M270 2198 c0 -62 2 -68 33 -94 47 -40 89 -54 160 -54 55 0 76 6 156
45 51 25 106 45 122 45 35 0 76 -20 103 -49 30 -33 36 -26 36 38 l0 59 -52 26
c-77 38 -115 34 -232 -24 -56 -28 -113 -50 -131 -50 -44 0 -130 45 -165 88
l-30 37 0 -67z"/>
<path d="M1083 1253 l2 -751 30 -44 c59 -83 0 -78 887 -78 533 0 796 3 815 11
40 15 73 48 94 94 17 37 19 77 19 620 l0 580 -154 154 -155 154 -93 -87 c-170
-160 -395 -291 -633 -367 -71 -23 -138 -44 -147 -48 -13 -5 38 -62 221 -250
l237 -245 228 315 c126 173 231 317 235 321 9 10 184 -16 188 -28 4 -12 -637
-876 -653 -881 -7 -2 -157 164 -334 369 l-323 373 -66 6 c-36 3 -61 6 -56 8 6
1 21 11 34 21 l23 20 -26 34 c-14 19 -70 86 -123 149 -54 63 -119 141 -145
173 -26 33 -61 75 -78 94 l-30 35 3 -752z"/>
<path d="M318 1944 c-15 -8 -35 -28 -44 -45 -20 -40 -20 -138 1 -178 27 -54
55 -61 245 -61 l170 0 0 -67 0 -67 30 29 c23 22 30 38 30 67 l0 38 65 0 65 0
0 45 0 45 -65 0 -65 0 0 60 0 60 65 0 65 0 0 45 0 45 -267 0 c-218 -1 -273 -4
-295 -16z m367 -134 l0 -55 -143 -3 c-78 -1 -157 1 -175 6 -30 8 -32 11 -32
52 0 57 7 59 200 57 l150 -2 0 -55z"/>
<path d="M270 1465 l0 -45 123 0 c67 0 140 -5 162 -11 40 -11 125 -85 125
-108 0 -8 -59 -11 -205 -11 l-205 0 0 -45 0 -45 210 0 210 0 0 -67 0 -67 30
29 c23 22 30 38 30 67 l0 38 65 0 65 0 0 45 0 45 -65 0 -65 0 0 53 c0 29 5 58
12 65 7 7 36 12 65 12 l53 0 0 45 0 45 -74 0 c-69 0 -76 -2 -95 -26 -12 -15
-21 -34 -21 -42 0 -12 -7 -9 -27 10 -56 52 -80 58 -243 58 l-150 0 0 -45z"/>
<path d="M808 1048 l-3 -73 -267 -3 -268 -2 0 -50 0 -50 265 0 c346 0 333 -6
342 158 l6 92 -36 0 -36 0 -3 -72z"/>
<path d="M270 705 l0 -45 259 0 c284 0 291 -1 291 -58 0 -58 3 -57 -285 -60
l-265 -3 0 -45 0 -44 273 0 c236 0 276 2 296 16 68 48 68 220 0 268 -20 14
-60 16 -296 16 l-273 0 0 -45z"/>
</g>
</svg>
