<svg version="1.0" xmlns="http://www.w3.org/2000/svg" width="512" height="496" viewBox="0 0 384 372"><path d="M118.5 20.4c-3.9 1.7-7 5.2-9 9.8-1.3 3.2-1.5 12.1-1.5 66.2v62.4l26.6 25.7c29.1 28.1 28.2 27.6 34.2 22 1.5-1.4 3.2-2.5 3.9-2.5.6 0 1.3-.4 1.5-.8.2-.5 15.9-11.3 35-24.2l34.7-23.3-2-2.5c-3.2-4.2-54-56.2-54.8-56.2-.4 0-10.5 13.4-22.4 29.7-11.9 16.4-22.2 30.6-23 31.6-1.2 1.8-1.9 1.8-11 .7-5.3-.7-9.7-1.6-9.7-2.1 0-1.8 66.3-90 67-89.2.4.4 9.9 11.4 21 24.3 11.2 12.9 21.3 24.4 22.5 25.5 1.3 1.1 7.1 7.5 12.9 14.2 5.8 6.7 11.5 12.7 12.6 13.3 2 1.1 5.4.1 6.2-1.8.2-.7 21.5-15.5 26.5-18.5 3.2-1.9-7.7 20.8-15 31.5-3.3 4.8-4.2 6.9-3.4 7.7.6.6.8 1.1.5 1.1-.5 0-14.3-15.5-26.2-29.5l-2.6-3v18l58.6 59c62.3 62.8 62 62.7 13 6l-21.6-25V112c0-74.2-.1-78.7-1.9-82.5-2.1-4.6-5.4-7.9-9.4-9.4-4.5-1.7-159.3-1.4-163.2.3zM27 32v5h61.1l-.3-4.8-.3-4.7-30.2-.3L27 27v5zm5.4 18C28 51.7 26 55.8 26 62.7c0 3.5.5 7.3 1 8.3.7 1.3.7 2.8-.1 4.7-1.4 3.7-1.3 11.9.2 15.5C29.3 96.7 31.3 97 61 97h27.1l-.3-4.8-.3-4.7-27-.5-27-.5v-8l27-.5 27-.5v-9l-27-.5-27-.5v-8l27-.5 27-.5v-9L61 49.3c-14.6-.1-27.5.2-28.6.7zm33.8 70.9c18.3 21.4 51.4 59.8 78.9 91.7 8.1 9.3 15.8 18.2 17.2 19.9l2.6 3 .1-9v-9l-58.6-59-58.5-59 18.3 21.4zM27 119.5V133h42v13.4l3-2.9c4.6-4.4 4.2-9.2-1.1-15l-4.2-4.5H34v-18h-7v13.5zm42-6.7v6.8l6.3 6.2c3.9 3.9 6.9 6.1 7.8 5.7 3.1-1.2 4.3-5 4.7-15.3l.4-10.2H81v8c0 6.8-.3 8.1-1.9 9-3.7 2-4.1 1.3-4.1-8v-9h-6v6.8zm-42 39.4c0 6.2.2 6.8 3.3 9.4 4.7 4 8.9 5.4 16 5.4 5.5 0 7.6-.6 15.6-4.5C67 160 72.5 158 74.1 158c3.5 0 7.6 2 10.3 4.9 3 3.3 3.6 2.6 3.6-3.8v-5.9l-5.2-2.6c-7.7-3.8-11.5-3.4-23.2 2.4-5.6 2.8-11.3 5-13.1 5-4.4 0-13-4.5-16.5-8.8l-3-3.7v6.7z"/><path d="M108.3 246.7l.2 75.1 3 4.4c5.9 8.3 0 7.8 88.7 7.8 53.3 0 79.6-.3 81.5-1.1 4-1.5 7.3-4.8 9.4-9.4 1.7-3.7 1.9-7.7 1.9-62v-58l-15.4-15.4-15.5-15.4-9.3 8.7c-17 16-39.5 29.1-63.3 36.7-7.1 2.3-13.8 4.4-14.7 4.8-1.3.5 3.8 6.2 22.1 25l23.7 24.5 22.8-31.5c12.6-17.3 23.1-31.7 23.5-32.1.9-1 18.4 1.6 18.8 2.8.4 1.2-63.7 87.6-65.3 88.1-.7.2-15.7-16.4-33.4-36.9l-32.3-37.3-6.6-.6c-3.6-.3-6.1-.6-5.6-.8.6-.1 2.1-1.1 3.4-2.1l2.3-2-2.6-3.4c-1.4-1.9-7-8.6-12.3-14.9-5.4-6.3-11.9-14.1-14.5-17.3-2.6-3.3-6.1-7.5-7.8-9.4l-3-3.5.3 75.2zm-76.5-69.1c-1.5.8-3.5 2.8-4.4 4.5-2 4-2 13.8.1 17.8 2.7 5.4 5.5 6.1 24.5 6.1h17v13.4l3-2.9c2.3-2.2 3-3.8 3-6.7V206h13v-9H75v-12h13v-9H61.3c-21.8.1-27.3.4-29.5 1.6zM68.5 191v5.5l-14.3.3c-7.8.1-15.7-.1-17.5-.6-3-.8-3.2-1.1-3.2-5.2 0-5.7.7-5.9 20-5.7l15 .2v5.5zM27 225.5v4.5h12.3c6.7 0 14 .5 16.2 1.1 4 1.1 12.5 8.5 12.5 10.8 0 .8-5.9 1.1-20.5 1.1H27v9h42v13.4l3-2.9c2.3-2.2 3-3.8 3-6.7V252h13v-9H75v-5.3c0-2.9.5-5.8 1.2-6.5.7-.7 3.6-1.2 6.5-1.2H88v-9h-7.4c-6.9 0-7.6.2-9.5 2.6-1.2 1.5-2.1 3.4-2.1 4.2 0 1.2-.7.9-2.7-1-5.6-5.2-8-5.8-24.3-5.8H27v4.5z"/><path d="M80.8 267.2l-.3 7.3-26.7.3-26.8.2v10h26.5c34.6 0 33.3.6 34.2-15.8l.6-9.2h-7.2l-.3 7.2zM27 301.5v4.5h25.9c28.4 0 29.1.1 29.1 5.8 0 5.8.3 5.7-28.5 6l-26.5.3v8.9h27.3c23.6 0 27.6-.2 29.6-1.6 6.8-4.8 6.8-22 0-26.8-2-1.4-6-1.6-29.6-1.6H27v4.5z"/></svg>